<svg width="91" height="91" viewBox="0 0 91 91" fill="none" xmlns="http://www.w3.org/2000/svg">
<circle cx="45.8168" cy="45.2102" r="44.9653" fill="#EEF6FC"/>
<path d="M46 14.5999C63.1213 14.5999 77 28.7096 77 46.1158C77 63.5221 63.1213 77.6318 46 77.6318C28.8787 77.6318 15 63.5221 15 46.1158C15 28.7096 28.8787 14.5999 46 14.5999ZM56.075 53.4654L55.9541 53.6923L55.7588 53.9791L41.0121 72.4254C42.6561 72.7452 44.3262 72.9056 46 72.9044C52.465 72.914 58.7061 70.4979 63.5274 66.119L57.067 51.8108C56.7787 52.3875 56.447 52.9422 56.075 53.4654ZM22.719 58.675C25.6412 64.2569 30.4048 68.6133 36.173 70.9788L45.9721 58.7222L45.3831 58.7065L44.9739 58.6813L22.719 58.675ZM71.203 38.2747H55.7092C55.9634 38.5993 56.2021 38.9365 56.4222 39.2832C56.4991 39.3706 56.5686 39.4644 56.6299 39.5637L56.7818 39.8473L56.9027 40.1057C57.1693 40.6037 57.4049 41.1237 57.6033 41.6595L66.9529 62.3655C70.4626 57.7007 72.3598 51.9887 72.35 46.1158C72.3523 43.4587 71.9657 40.8161 71.203 38.2747ZM19.65 46.1158C19.65 48.842 20.053 51.4736 20.797 53.9507H36.2846C36.0308 53.6266 35.7929 53.29 35.5716 52.9422L35.1531 52.2394L23.9497 31.4452C21.1367 35.803 19.6419 40.9035 19.65 46.1158ZM39.862 41.3065L39.7256 41.5303C39.6583 41.6371 39.5826 41.7383 39.4993 41.8328C38.7782 42.9643 38.3548 44.265 38.2695 45.6105C38.1843 46.9559 38.44 48.3011 39.0124 49.5173C39.5847 50.7335 40.4545 51.7801 41.5384 52.5569C42.6223 53.3337 43.8842 53.8147 45.2033 53.9539H46.7936C48.7078 53.7544 50.4806 52.8381 51.767 51.3832C53.0534 49.9283 53.7614 48.0389 53.7533 46.0827C53.7451 44.1264 53.0215 42.2432 51.723 40.7994C50.4246 39.3556 48.6443 38.4546 46.7285 38.2715L45.5722 38.2778L45.3924 38.2621C44.3123 38.3478 43.262 38.6631 42.3094 39.1875C41.3567 39.712 40.523 40.4339 39.862 41.3065ZM46 19.3273C42.4747 19.3226 38.9846 20.0393 35.7375 21.4346C32.4903 22.8299 29.5526 24.8753 27.0993 27.4489L34.5455 41.275C34.9392 40.3169 35.4445 39.4155 36.049 38.593L48.1514 19.4155C47.4357 19.3567 46.718 19.3273 46 19.3273ZM44.7414 33.5725C45.4739 33.4973 46.2114 33.4879 46.9455 33.5441L69.2779 33.5504C66.0445 27.3734 60.568 22.7228 54.0135 20.5879L53.1083 20.3137L44.7414 33.5725Z" fill="#39A2DB"/>
</svg>
